<svg width="12" height="12" viewBox="0 0 12 12" fill="none" xmlns="http://www.w3.org/2000/svg">
<path d="M4.68177 11.5979C4.30712 11.5979 3.99115 11.4445 3.73385 11.1375L0.429688 7.1021C0.321354 6.97571 0.244618 6.85609 0.199479 6.74325C0.15434 6.62588 0.131771 6.50175 0.131771 6.37085C0.131771 6.09099 0.226563 5.85852 0.416146 5.67345C0.605729 5.48838 0.844965 5.39585 1.13385 5.39585C1.45885 5.39585 1.72969 5.52901 1.94635 5.79533L4.65469 9.18075L9.96302 0.784911C10.0849 0.595328 10.2135 0.462168 10.349 0.385432C10.4844 0.304182 10.6514 0.263557 10.85 0.263557C11.1389 0.263557 11.3759 0.356092 11.5609 0.541161C11.746 0.721717 11.8385 0.951925 11.8385 1.23179C11.8385 1.33561 11.8205 1.4462 11.7844 1.56356C11.7483 1.6764 11.6918 1.79377 11.6151 1.91564L5.63646 11.1037C5.41528 11.4332 5.09705 11.5979 4.68177 11.5979Z" fill="#22C1BD"/>
</svg>
